<?xml version="1.0" encoding="utf-8"?>
<svg version="1.1" xmlns:xlink="http://www.w3.org/1999/xlink" width="28px" height="10px" xmlns="http://www.w3.org/2000/svg">
  <g transform="matrix(1 0 0 1 -2910 -266 )">
    <path d="M 2912 271  A 3 3 0 0 1 2915 268 L 2933 268  A 3 3 0 0 1 2936 271 A 3 3 0 0 1 2933 274 L 2915 274  A 3 3 0 0 1 2912 271 Z " fill-rule="nonzero" fill="#ffffff" stroke="none" />
    <path d="M 2911 271  A 4 4 0 0 1 2915 267 L 2933 267  A 4 4 0 0 1 2937 271 A 4 4 0 0 1 2933 275 L 2915 275  A 4 4 0 0 1 2911 271 Z " stroke-width="2" stroke="#d9001b" fill="none" stroke-opacity="0.819607843137255" />
  </g>
</svg>