<?xml version="1.0" encoding="utf-8"?>
<svg version="1.1" xmlns:xlink="http://www.w3.org/1999/xlink" width="22px" height="22px" xmlns="http://www.w3.org/2000/svg">
  <g transform="matrix(1 0 0 1 -1706 -999 )">
    <path d="M 1717 999  C 1723.16 999  1728 1003.84  1728 1010  C 1728 1016.16  1723.16 1021  1717 1021  C 1710.84 1021  1706 1016.16  1706 1010  C 1706 1003.84  1710.84 999  1717 999  Z " fill-rule="nonzero" fill="#ffffff" stroke="none" fill-opacity="0" />
    <path d="M 1717 999.5  C 1722.88 999.5  1727.5 1004.12  1727.5 1010  C 1727.5 1015.88  1722.88 1020.5  1717 1020.5  C 1711.12 1020.5  1706.5 1015.88  1706.5 1010  C 1706.5 1004.12  1711.12 999.5  1717 999.5  Z " stroke-width="1" stroke="#e5e5ea" fill="none" />
  </g>
</svg>