<svg t="1588230096708" class="icon" viewBox="0 0 1024 1024" version="1.1" xmlns="http://www.w3.org/2000/svg" p-id="2765" width="200" height="200"><path d="M0 148.768c0 14.336 5.856 28.608 16 38.72 10.176 10.176 24.448 16.128 38.848 16.128a55.552 55.552 0 0 0 38.72-16.064c10.176-10.176 16.096-24.448 16.096-38.784 0-14.528-5.76-28.48-15.936-38.816a55.456 55.456 0 0 0-38.848-16.032A55.488 55.488 0 0 0 16 109.952 55.776 55.776 0 0 0 0 148.768M1024.384 148.768c0 30.304-23.616 54.848-52.768 54.848H272.192c-29.152 0-52.768-24.48-52.768-54.848-0.032-30.4 23.616-54.88 52.768-54.88h699.392c29.216 0.032 52.8 24.512 52.8 54.88M0 511.936c0 14.368 5.824 28.736 16 38.944 10.176 10.112 24.384 15.904 38.848 15.904a55.744 55.744 0 0 0 38.784-15.904c10.208-10.4 16-24.384 16.032-38.944a55.808 55.808 0 0 0-16.032-38.752c-10.336-10.24-24.224-16-38.784-16.032-14.528 0.032-28.48 5.792-38.848 16.032a55.296 55.296 0 0 0-16 38.752M971.584 566.784H272.192c-29.152 0-52.768-24.448-52.768-54.848 0-30.272 23.616-54.784 52.768-54.784h699.392c29.216-0.16 52.768 24.48 52.768 54.784 0.032 30.24-23.616 54.848-52.768 54.848z" p-id="2766" fill="#8a8a8a"></path><path d="M0 875.232c0 14.368 5.824 28.672 16 38.848a55.104 55.104 0 0 0 77.632 0c10.208-10.304 16-24.288 16.032-38.848a55.52 55.52 0 0 0-16.032-38.88 55.328 55.328 0 0 0-38.784-16 55.456 55.456 0 0 0-38.848 16 55.776 55.776 0 0 0-16 38.88M1024.384 875.168c0 30.4-23.616 54.944-52.768 54.944H272.192c-29.152 0-52.768-24.544-52.768-54.944 0-30.176 23.616-54.816 52.768-54.816h699.392c29.216-0.096 52.8 24.608 52.8 54.816" p-id="2767" fill="#8a8a8a"></path></svg>