<?xml version="1.0" encoding="utf-8"?>
<svg version="1.1" xmlns:xlink="http://www.w3.org/1999/xlink" width="140px" height="61px" xmlns="http://www.w3.org/2000/svg">
  <g transform="matrix(1 0 0 1 -1797 -177 )">
    <path d="M 1797 234.963042808747  C 1797 234.963042808747  1797 188.853403141361  1797 188.853403141361  C 1797 187.196548891869  1798.34314575051 185.853403141361  1800 185.853403141361  C 1800 185.853403141361  1909.24637681159 185.853403141361  1909.24637681159 185.853403141361  C 1909.24637681159 185.853403141361  1919.50650315868 177.231884057972  1919.50650315868 177.231884057972  C 1919.50650315868 177.231884057972  1929.24637681159 185.853403141361  1929.24637681159 185.853403141361  C 1929.24637681159 185.853403141361  1934 185.853403141361  1934 185.853403141361  C 1935.65685424949 185.853403141361  1937 187.196548891869  1937 188.853403141361  C 1937 188.853403141361  1937 234.963042808747  1937 234.963042808747  C 1937 236.619897058239  1935.65685424949 237.963042808747  1934 237.963042808747  C 1934 237.963042808747  1800 237.963042808747  1800 237.963042808747  C 1798.34314575051 237.963042808747  1797 236.619897058239  1797 234.963042808747  Z " fill-rule="nonzero" fill="#ffffff" stroke="none" />
  </g>
</svg>