<?xml version="1.0" encoding="utf-8"?>
<svg version="1.1" xmlns:xlink="http://www.w3.org/1999/xlink" width="140px" height="80px" xmlns="http://www.w3.org/2000/svg">
  <g transform="matrix(1 0 0 1 -2317 -980 )">
    <path d="M 2317 1056.95153155245  C 2317 1056.95153155245  2317 994.611020513261  2317 994.611020513261  C 2317 992.954166263768  2318.34314575051 991.611020513261  2320 991.611020513261  C 2320 991.611020513261  2429.24637681159 991.611020513261  2429.24637681159 991.611020513261  C 2429.24637681159 991.611020513261  2439.50650315868 980.304110239963  2439.50650315868 980.304110239963  C 2439.50650315868 980.304110239963  2449.24637681159 991.611020513261  2449.24637681159 991.611020513261  C 2449.24637681159 991.611020513261  2454 991.611020513261  2454 991.611020513261  C 2455.65685424949 991.611020513261  2457 992.954166263768  2457 994.611020513261  C 2457 994.611020513261  2457 1056.95153155245  2457 1056.95153155245  C 2457 1058.60838580195  2455.65685424949 1059.95153155245  2454 1059.95153155245  C 2454 1059.95153155245  2320 1059.95153155245  2320 1059.95153155245  C 2318.34314575051 1059.95153155245  2317 1058.60838580195  2317 1056.95153155245  Z " fill-rule="nonzero" fill="#ffffff" stroke="none" />
  </g>
</svg>