<?xml version="1.0" encoding="utf-8"?>
<svg version="1.1" xmlns:xlink="http://www.w3.org/1999/xlink" width="140px" height="62px" xmlns="http://www.w3.org/2000/svg">
  <g transform="matrix(1 0 0 1 -1797 -979 )">
    <path d="M 1797 1037.96243695315  C 1797 1037.96243695315  1797 990.998540897777  1797 990.998540897777  C 1797 989.341686648285  1798.34314575051 987.998540897777  1800 987.998540897777  C 1800 987.998540897777  1909.24637681159 987.998540897777  1909.24637681159 987.998540897777  C 1909.24637681159 987.998540897777  1919.50650315868 979.235685435972  1919.50650315868 979.235685435972  C 1919.50650315868 979.235685435972  1929.24637681159 987.998540897777  1929.24637681159 987.998540897777  C 1929.24637681159 987.998540897777  1934 987.998540897777  1934 987.998540897777  C 1935.65685424949 987.998540897777  1937 989.341686648285  1937 990.998540897777  C 1937 990.998540897777  1937 1037.96243695315  1937 1037.96243695315  C 1937 1039.61929120264  1935.65685424949 1040.96243695315  1934 1040.96243695315  C 1934 1040.96243695315  1800 1040.96243695315  1800 1040.96243695315  C 1798.34314575051 1040.96243695315  1797 1039.61929120264  1797 1037.96243695315  Z " fill-rule="nonzero" fill="#ffffff" stroke="none" />
  </g>
</svg>