<?xml version="1.0" encoding="utf-8"?>
<svg version="1.1" xmlns:xlink="http://www.w3.org/1999/xlink" width="140px" height="60px" xmlns="http://www.w3.org/2000/svg">
  <g transform="matrix(1 0 0 1 -1792 -2006 )">
    <path d="M 1792 2062.96364866434  C 1792 2062.96364866434  1792 2017.70826538495  1792 2017.70826538495  C 1792 2016.05141113545  1793.34314575051 2014.70826538495  1795 2014.70826538495  C 1795 2014.70826538495  1904.24637681159 2014.70826538495  1904.24637681159 2014.70826538495  C 1904.24637681159 2014.70826538495  1914.50650315868 2006.22808267997  1914.50650315868 2006.22808267997  C 1914.50650315868 2006.22808267997  1924.24637681159 2014.70826538495  1924.24637681159 2014.70826538495  C 1924.24637681159 2014.70826538495  1929 2014.70826538495  1929 2014.70826538495  C 1930.65685424949 2014.70826538495  1932 2016.05141113545  1932 2017.70826538495  C 1932 2017.70826538495  1932 2062.96364866434  1932 2062.96364866434  C 1932 2064.62050291383  1930.65685424949 2065.96364866434  1929 2065.96364866434  C 1929 2065.96364866434  1795 2065.96364866434  1795 2065.96364866434  C 1793.34314575051 2065.96364866434  1792 2064.62050291383  1792 2062.96364866434  Z " fill-rule="nonzero" fill="#ffffff" stroke="none" />
  </g>
</svg>